/* XPM */
static char *_20f6c475bb24407e9244c42bbdf3452bvQpcoPUk3xIjq7g[] = {
/* columns rows colors chars-per-pixel */
"64 64 201 2 ",
"   c #05082F",
".  c #040B3D",
"X  c #0A0E3E",
"o  c #0C123D",
"O  c #11163E",
"+  c #16193C",
"@  c #000745",
"#  c #040C45",
"$  c #090E44",
"%  c #050C4B",
"&  c #090E4B",
"*  c #04074A",
"=  c #071245",
"-  c #0B1244",
";  c #07104B",
":  c #0B124C",
">  c #0F184D",
",  c #101745",
"<  c #131A45",
"1  c #11164C",
"2  c #131A4D",
"3  c #191D4D",
"4  c #050E51",
"5  c #090F52",
"6  c #0C1453",
"7  c #0D1850",
"8  c #0D165C",
"9  c #0E195C",
"0  c #051256",
"q  c #111654",
"w  c #141C54",
"e  c #1B1E55",
"r  c #10175C",
"t  c #131B5C",
"y  c #191D5E",
"u  c #1B224F",
"i  c #172157",
"p  c #1C2453",
"a  c #17215F",
"s  c #1D255C",
"d  c #1D2855",
"f  c #23254D",
"g  c #272B4E",
"h  c #242C56",
"j  c #21245E",
"k  c #232B5C",
"l  c #2C2E5E",
"z  c #262A53",
"x  c #2B335C",
"c  c #2B3355",
"v  c #30355B",
"b  c #0C1664",
"n  c #0E1B65",
"m  c #0D166A",
"M  c #0E1B6A",
"N  c #071765",
"B  c #111763",
"V  c #121C65",
"C  c #181E65",
"Z  c #11176B",
"A  c #111B6B",
"S  c #191F6B",
"D  c #0F1A71",
"F  c #121C72",
"G  c #1A1F71",
"H  c #0F2065",
"J  c #0F2068",
"K  c #152065",
"L  c #1A2263",
"P  c #14216C",
"I  c #1A226B",
"U  c #162172",
"Y  c #1A2273",
"T  c #222A6B",
"R  c #2D3363",
"E  c #2E3A60",
"W  c #353B65",
"Q  c #353A6B",
"!  c #383F6D",
"~  c #383B66",
"^  c #384067",
"/  c #3C456B",
"(  c #41415D",
")  c #42466D",
"_  c #414A6F",
"`  c #434770",
"'  c #454B73",
"]  c #4A4E7B",
"[  c #494D73",
"{  c #4C5277",
"}  c #4D537B",
"|  c #51557C",
" . c #545A7C",
".. c #5A5F7F",
"X. c #4D5285",
"o. c #555A85",
"O. c #5A5E8B",
"+. c #5E658B",
"@. c #5A6084",
"#. c #5E6493",
"$. c #566093",
"%. c #63668A",
"&. c #646B8A",
"*. c #606384",
"=. c #6E7180",
"-. c #666B93",
";. c #6D7394",
":. c #6A719A",
">. c #73769D",
",. c #767B9D",
"<. c #7A7C9E",
"1. c #707A95",
"2. c #7577A7",
"3. c #737AA3",
"4. c #787EA0",
"5. c #7D839E",
"6. c #77819A",
"7. c #7C82A2",
"8. c #7982AB",
"9. c #81869C",
"0. c #858BA7",
"q. c #848AAA",
"w. c #898EAB",
"e. c #8383A7",
"r. c #8C91AE",
"t. c #858AB3",
"y. c #898AB8",
"u. c #8D92B1",
"i. c #8790BB",
"p. c #8F94BB",
"a. c #999DB5",
"s. c #9297BB",
"d. c #9399BC",
"f. c #989EBE",
"g. c #9EA2BE",
"h. c #999FC2",
"j. c #9EA3C3",
"k. c #9EA6CA",
"l. c #A6AAC4",
"z. c #AAAEC4",
"x. c #A5ABCC",
"c. c #A9ADCD",
"v. c #A2A5C8",
"b. c #ABB3CC",
"n. c #B6B6CE",
"m. c #A6ABD3",
"M. c #A9ACD2",
"N. c #AEB3D4",
"B. c #B1B6D2",
"V. c #B3B9DA",
"C. c #B8BEDB",
"Z. c #B8B9D5",
"A. c #BABEE1",
"S. c #BEC3DE",
"D. c #B9C1D4",
"F. c #BCC4E2",
"G. c #CACBDC",
"H. c #D5D6DA",
"J. c #C2C7E2",
"K. c #C5CBE3",
"L. c #C5CCEC",
"P. c #C9CBE4",
"I. c #CCD2EB",
"U. c #C7D1EC",
"Y. c #D6D8E7",
"T. c #D0D6EE",
"R. c #D2D9EB",
"E. c #CDD3F3",
"W. c #D2D6F3",
"Q. c #D5DBF3",
"!. c #D9DDF3",
"~. c #D7DCFC",
"^. c #DBDEF9",
"/. c #DCE3F7",
"(. c #DCE1FC",
"). c #E3E4F6",
"_. c #E2E6FB",
"`. c #E4EAFD",
"'. c #EAECFE",
"]. c #EDF2FE",
"[. c #EFF3F6",
"{. c #F5F6F4",
"}. c #FAF6F6",
"|. c #F6F9F4",
" X c #FCFCF5",
".X c #F3F6FC",
"XX c #FAF6FB",
"oX c #F5FAFE",
"OX c #F6FDFF",
"+X c #F6FBFE",
"@X c #FEFEFB",
"#X c #FBF9FE",
"$X c #F8FAFE",
"%X c #FDFAFF",
"&X c #FDFAFE",
"*X c #FBFEFF",
"=X c #FBFFFF",
"-X c #FAFEFF",
";X c #FCFFFF",
":X c #FFFDFE",
">X c #FDFDFD",
/* pixels */
"n n J M M F D D A A A A M M F M A M M A M M M M A A M A A A A m F F D A A M M M M M M M M M A m F D A M A V A B V V Z V A Z A A ",
"V n n A M M M M F M M A A A m A M A A M A M M M V n A A A A P S Z F A A A F M M M M M M A M A S A M M A A A V A V V V A A Z A A ",
"K M J M M A M A M A A M M A A A A Z A A A M A V M H n n n N M n Z m A A A A M M A M M A M A A b V n M A A A M M A A A M A M A A ",
"M M M A M M A A A M M V V A M A Z S Z A M A V M n n n P P M M M S S S V A A A M A A A A A M A n n V n M M M M M Z A A A A A A M ",
"M M A M A A M M A n V n n V n A A A A A Z A A A A M M M A M M M n n n M A A S F A A M m M M A A M A A A n n J M M D D D M A V V ",
"A M M A A n V M K V M V M n M J A M Z A M M A A P A M M b M A A A V A A B A A Z A A S M A M A M F M M V n n M M D M D M A M V V ",
"A M A A A n V V M n A n M J M M D F Z A A M A V V V A V S F F P V V V V V B V B V K A P P A V M F F S A M M n J M M M A A A Z V ",
"D A A M n V V M A M A A M M A M M D M M A A Z V S V C C r 6 5 * ; : > 2 2 w 2 2 : : ; ; ; 6 9 t P C A A n A A J M H n n V A A A ",
"M A A M V n M V A M m D Z A F M H n H J M A A A Z q * 1 l ' -.q.g.N.F.U.W.W.I.G.V.l.u.4.O.^ u o - ; t L V S A A N H 9 P V S m F ",
"A M V A n V A M M F F D D Z A n n H 9 n P V 8 % j X.y.C.(..X=X=XOX=X=X=X;X;X;X;X=X=X+X=X&X.X(.B.<.) p # : B V V P 9 V b A Z D F ",
"A M n n V n M A M D F F A A A A M P I 9 $ 2 ' j.^..X;X=XOX=X=X X&X;XXX#X&X}.;X&X}.&X&XXX&X;XXX;X=X=XI.u./ # q L V B Z G A A G m ",
"M A P n V A A A F F D m b S I 8 K t @ p :.J.OX=X+X;X-X X}.@X-X@X X@X&X@X;X&X XXX;X;X&X&XXXXX&X&X.XOX.X=X+XN.` 1 6 I Y Z Z S Z b ",
"M M M V V M M M Z D F Z S C 6 a : 2 :.E.+X=XOX@X X X X X X@X X X@X X}.}.@X@X;X;X&X;X#X=X;X;X}.}.=X=X+X@X=X=X+XM.R * C A G b V A ",
"A M M J M V A A F A Z n V t w o ' K.=X#X;X;X-X X X X X X X@X@X-X{.}.;X;X#X.XI.B.l.l.z.G.'.;X;X&X#X{.@X X}.;X&X=X'.-.# L B b P S ",
"M M M n n A M S F b Y V a 7 2 t.=X.X;X&X X X X@X X@X X@X;X#X#X+X;X.X(.v.o.R i : # & . 3 c &.W.#X}.-X}.@X;X}.}..X&X=X0.o y V m M ",
"D J M A M M A Z Z Z 9 I = R F.OX=X@X}. X;X;X;X}.;X@X;X@X;X+X+X#X^.>.h $ % 9 n J P n I 6 w $ 3 c.;X&X@X-X}.;X@X@X#X#XOX0.X K A F ",
"U N M M M M N A A V y , ) !.=X+X-X X-X@X X X;X@X;X}.;X;X#X=X=Xm.i 7 6 K P M M J M M A V S P r > J.=XOX@X X X;X;X&X;X+XOX+.. L A ",
"M J M M M M F A V t $ { '.&X#X;X X@X=X;X=X-X@X@X@X@X@X}.;X#Xp.w K n b A J J M J D M F N b S G 6 { .X=X{.@X X}.;X;X;X=XOXI.x 7 V ",
"M P M D m F A A C > / ].;X#X;X}.;X;X;X;X;X;X;X@X@X X X}.=Xg.o w V M M M M M M M n n n P n b n q o G.=X.X@X X;X}.;X@X X.XOX3.@ I ",
"M M M M F F b L 2 x (.=X.X.X;X;X;X;X;X;X;X;X;X;X X X@X=XZ.o w e V S S M M M J M J J n b P V S s O a.;X#X@X@X;X@X}.@X;X|.OXV.& L ",
"n n F F F m S q < F.=X{.;X;X}.;X;X;X@X@X;X;X;X}. X-X;X^.3 y B V A A A V A M n M J J M J A n n a   z.;X.X;X;X&X@X X X X=XOXE.s r ",
"n M M F m Z L . q.OXOX-X|.@X X}.@X@X@X@X@X;X@X@X X;X#X[ & A S Y S n V A A A A A D n A A A I V q c ).&X#X;X;X;X;X@X X X|.OX~.j t ",
"K M m F A V > / +X[.;X X X X@X@X@X X@X@X@X X X X|.OXr.. C V M N A n M A F M A M m S I n C V 5 = z.;X+X;X}.&X;X;X@X X X-X=XL.1 w ",
"M n A m S C - B.OX=X@X@X@X X X@X@X@X@X@X X-X X+X=XR.u w V V N P n M A A M D F Z A V V t w $ R V.;X|.;X;X;X;X}.;X@X X+X+X=Xd.$ a ",
"M M M V L = } OX#X+X@X@X&X@X@X@X@X;X;X;X}.@X XOXOX+.6 V A M M M n n P M M F Y Z S t & X g 9.`.=X|.@X@X@X@X;X;X@X@X@X.XOXOX} % C ",
"n M S V t < c.=X=X=X;X;X;X&X@X@X}.;X;X;X;X@X|.OXL.w V S M P P n I V H I V 8 5 : $ h | g._.=X;X#X;X-X@X;X@X X X@X X-XoXOXM.= C V ",
"M A A K : v .X+X&X;X&X;X;X;X;X@X@X;X&X X;X X;X;X3.& I S S 9 n 0 ; ; ; ; > h { 6.z.`.=X#X;X;X&X&X;X;X;X}.@X@X@X X=X.XOX(.l y Z F ",
"D A V K = ;.OX|.@X&X;X&X&X;X@X@X@X@X;X;X X X;XY.+ X # & 2 w k Q X.#.8.k.U.(.oXOX=X;X#X;X;X}.;X;X;X;X;X@X@X@X=X#X[.=X(.Q % S Z D ",
"M A V t , B.=X-X@X@X&X;X&X;X@X X@X-X@X X X X XH...9.g.z.D.R.!.'..X=X=XOXOX=X=X+X;X#X X;X}.@X;X X;X;X&X;X;X&X#X+X;XA.x q r b M F ",
"M A V 8 e Q.=X@X X X;X;X&X;X@X X;X;X X X X X;X&X;X;X=XOX=X=X=X;XOXOX|.}.=X=X&X;X&X;X;X;X;X@X X;X}.;X;XXX&X&X+X`.>.1 q V S M F M ",
"M V P 6 ! '.;X X X X@X;X;X;X@X@X;X;X}.@X@X}.XX;X}.@X|.|.;X#X#X&X;X@X@X@X;X@X@X X@X;X@X}.@X;X@X}. X;X;X;X&X!.e.l & y S b P P b n ",
"M n V 5 o.#X+X@X X X@X;X;X;X@X@X;X;X;X;X X;X&X;X;X@X X@X-X@X;X&X@X@X@X@X X@X;X}.@X.X|.#X#X;X;X;X;X&X_.z.*.f $ 1 T Z A A M N K H ",
"P b G * ;.#X;X@X;X&X;X;X;X;X@X;X;X;X&X;X@X@X@X&X@X+X+XOX+X+X#X&X}.@X@X X X#X=X#X;X;X=X=X+XOX_.C.i.$.L = ; t C V V Z A A A M A n ",
"n V G 5 >.=X@X@X&X;X;X;X@X;X;X;X;X;X&X;X;X}.;X;X=X=X=X=X=XOX=X#X;X;X#X=X=X=X+X].Q.F.c.u.-.' c = % 0 9 P P A n M A A A M M A A A ",
"n n S * <.;X}. X;X;X;X;X;X;X;X;X}.;X;X&X@X;XG.n.Z.V.B.B.N.M.v.j.s.t.3.-.O.} ! R s 2 ; ; % 5 9 V K V V n V n A A A M A A A M n A ",
"H P S * >.;X|.@X;X;X;X;X@X;X;X@X@X;X;X;X&X.X(   3 - - - : & $ $ & & % % % 6 8 9 9 n P I P U F n n n n V A M A A A A A M A A M V ",
"n A Y * +.=X X@X;X;X;X;X;X;X;X;X}.@X;X;X#X/.f e y B t C Z C S L K K I K V V V K A A M n M D D M V V A P n M M A A M M A M A A n ",
"n n I 6 ' .X=X@X@X;X;X@X;X;X;X;X;X;X;X}.;XI.3 q S A A K A A Z Z A n M V P n n M M n M A M M D F A n b n A A A m M Z A M A n V A ",
"n V V 9 x /.;X;X@X@X@X@X@X;X;X;X}.;X;XXX=XP.3 r M D M n A A M M P A m A V M A n n M A F F M m S A A P A M M M M A A A A M A M V ",
"V V b t 3 L.=X|.@X@X@X;X@X&X;X;X;X&X;X=XOXG.: V D D M n M M M M S A A S A V V A S A n B A A A B M A M A A A A A A M M A A M V M ",
"J M V K . j.OX.X;X}.@X X;X@X;X;X&X;X;X-X=XR.u 9 F D J N J J M J Z A D Z M M A A A A V Z S V A A A A A A A A m A A M A M A A M Z ",
"M n n K # +.=X=X;X@X;X@X@X}.;X#X;X;X@X@X=X`.h y A A M J D N M D M M A A M M M A V M Z V V A V A A A M m M A A A M Z A M A M M A ",
"A M n K t k `.+X&X;X}.;X@X X;X;X;X;X@X@X+X=X%.= I m M P D D U D M M M M M M M J n n V K V n V M A A M A A M M A A F M Z m A A M ",
"A P n V L ; x.OX&X;X;X&X@X@X X;X;X;X@X@X X=XB.X t I N A M D D D M J M M M J M J J M M M M J M M A M A A F A A M A M A M A M V A ",
"M P M n V & o.OX.X#X;X&X X@X@X;X@X;X@X@X X@X]. .$ L r A F D F M D J J D J D M D D J D M M D M A M A M A A M A M A n A A A A A n ",
"M A N A A 9 2 J.&XXXXX;X X X@X@X;X;X-X@X X|.;XP.z 1 L 9 F F A A M M M M M D M M D M M M D M F A F A A M A M V A A Z M M A M A A ",
"A M n A A C $ ..#X;X&X;X;X|.@X-X;X;X@X@X X X;X;XC.3 $ T Z b V 9 M M M n M M M A M M A A M A M M A A A V A V n M M A A A A A M A ",
"b A M A M A e o z.&X&X}.@X X@X X;X;X@X X X X}.#X;XE.) . 6 L y y H n V V M M n A M A S V K V V r : 6 b V Z A A n n V n A M A A m ",
"V n A A F M V i h /.=X|.|. X@X}.;X;X}.@X X X@X@X.X=X].s.Q - $ q V K K V S P I A S V 8 & $ & e Q  .` q r S N F V n H n A A A M A ",
"V V A M D M A t = / OXOX#X;X X;X&X&X;X;X}. X@X X;X|.#X=X'.c.%.~ w : & ; & @ % : $ 2 k ] >.M.W..X#X=X2.& Y F Z n K 9 A M M A M A ",
"V V M A D D A V L , } OX;X.X;X@X@X;X@X;X;X}.@X;X;X-X#X+X;X;X=X.XK.b.r.5.;.;.,.w.j.S./.#X;X;X}.;X+X=XE.q 9 A M n n n M D D F A M ",
"V A M A A M M A t a = { _.;X;X}.|.@X X|.@X;X;X;X X-X X X X X X X;X=X=XOX=XOX=X=X=X=X;X;X;X X X|.-XOX~.k V n n M H n A F F D A A ",
"A Z A A M M M M S V L & W G..X#X}. X;X@X@X X;X}.@X;X;X;X;X X}.;X}.@X@X X X=X X{.|.}.@X@X X}. X@X{.+XL.> V N Y M M M M F D D A m ",
"D S A A M V M M D m V L w < 7.'.;X;X.X[.+X;X@X@X}.@X@X}.;X&X;X&X;X X}.@X@X@X;X;X;X@X@X;X;X;X X}.=X+Xd.$ I P M M M M A F D A V A ",
"F Z D Z n n n M M F N A C i = x d.(.=XOX=X+X|.=X X-X X;X;X#X&X;X;X&X;X;X;X;X X#X=X#X=X{.XX&X;X;X].x.h L n A A M A A A A n n n n ",
"F D D Z V n K M M D F A V 9 L > . x :.C.].=X=XOX=X=X=X#XXX#XXX#XXX&X&XXX#X=X=X=X=X#X=X=X;X'.G.r._ - 6 V V m A M M A V A V n n a ",
"Z S A A A n A M M M D A M A V V K 6 # 2 Q -.h.J.'.].=X=X#X=X;X=X;X;X=X=XOXOXoX'.(.U.m.t.#.Q 1 # q t Z S M M M H V n V V V V n n ",
"A A A A A A M M M A A M A A M V V S V t 5 % & w k Q | -.,.0.w.q.0.0.7.1.&. ./ x d 2 = % 5 8 V I r V S A M M M n n V V Z A A n V ",
"V V V n M A Z A D M M M M A M A n B b A S S V 9 V 9 6 * # $ $ $ $ @ % @ ; 0 7 7 9 9 a K P K M n Z Z A M n M n n V V A A M A M M ",
"r V n A M F D F A M A M H n M M A A A M A F S F V V V S L K C V Y U P A A P J J P J H n b n J M S Z M M n H H n V V A Z F D F D ",
"t n V M A Z F A A A A n V A M A m A S M M n n n V A V V n K V A N M A F M M M M N n A n n n n M A A V n H n n H A S Z F D D D M ",
"n V M A A Z A Z n n V V n A M A F M M b A P A V n n n V n M M M F A D M M M D A F A A A n n M M A A P A n H n n Z A Z A A A M A ",
"M M A A A V V C V V V V A A A A Z S S Z A n n M A A M M D M F A M A A A A M A A Z m A A A A M A M A n n n n M A A Z Z A V n n V ",
"F F A M A V V V r V V V A Z S A A A n A A m A A A M M m M D M M A n n V A A A A A Z D F F F F F A M n n n n n M A F S A V V H n "
};
