/* XPM */
static char *_6836a46d2c64a93c2dacbbb0bf4d4b6fjHJhCDZnpZEtqrH[] = {
/* columns rows colors chars-per-pixel */
"64 64 191 2 ",
"   c #5D7E9D",
".  c #617E9F",
"X  c #5E7FA0",
"o  c #627FA1",
"O  c #3F93BC",
"+  c #5E809F",
"@  c #62819F",
"#  c #4E88AD",
"$  c #5F82A0",
"%  c #528DAF",
"&  c #4E8EB5",
"*  c #448FBB",
"=  c #4B8EBC",
"-  c #558EB3",
";  c #598FB4",
":  c #548FBB",
">  c #5A8FBA",
",  c #4D90B6",
"<  c #4592BB",
"1  c #4B93BC",
"2  c #5290B6",
"3  c #5A91B5",
"4  c #5393BB",
"5  c #5C93BC",
"6  c #5D98BE",
"7  c #6383A3",
"8  c #6A86A5",
"9  c #6788A5",
"0  c #6A8AA7",
"q  c #6A87A8",
"w  c #6C8CAA",
"e  c #728EAC",
"r  c #6E90AC",
"t  c #7591AE",
"y  c #7891AF",
"u  c #6495B5",
"i  c #6B92B7",
"p  c #6598B7",
"a  c #6494BD",
"s  c #6B95BC",
"d  c #6598BC",
"f  c #6B9ABC",
"g  c #7492B1",
"h  c #7A96B3",
"j  c #7D9AB5",
"k  c #7496BB",
"l  c #7696B9",
"z  c #7293BC",
"x  c #7194BC",
"c  c #7295BD",
"v  c #7096BD",
"b  c #7197BC",
"n  c #7396BC",
"m  c #7095BF",
"M  c #7097BE",
"N  c #7396BE",
"B  c #7295BF",
"V  c #7597BC",
"C  c #7497BD",
"Z  c #7696BD",
"A  c #7595BE",
"S  c #7597BF",
"D  c #7796BD",
"F  c #7496BD",
"G  c #7A97B9",
"H  c #7997BB",
"J  c #7A96BB",
"K  c #7997B9",
"L  c #7A96BD",
"P  c #7B97BF",
"I  c #7996BD",
"U  c #7D96BE",
"Y  c #7A97BC",
"T  c #7798BB",
"R  c #7599BD",
"E  c #7698BD",
"W  c #7799BC",
"Q  c #7598BE",
"!  c #7799BE",
"~  c #7499BE",
"^  c #7B98BA",
"/  c #7B99BB",
"(  c #7C99BB",
")  c #7A98BC",
"_  c #799ABD",
"`  c #799ABE",
"'  c #7D9ABC",
"]  c #7E9BBD",
"[  c #7D9BBF",
"{  c #7B9CBF",
"}  c #7F9CBE",
"|  c #7B99BC",
" . c #77A3BE",
".. c #7BA1BD",
"X. c #4C95C0",
"o. c #5491C0",
"O. c #5592C1",
"+. c #5396C0",
"@. c #5A93C0",
"#. c #5D92C1",
"$. c #5A95C1",
"%. c #5B94C1",
"&. c #5895C2",
"*. c #5A95C1",
"=. c #5C95C0",
"-. c #5F95C1",
";. c #5C94C1",
":. c #5C98C2",
">. c #6093C0",
",. c #6793C0",
"<. c #6295C0",
"1. c #6495C0",
"2. c #6796C0",
"3. c #6697C0",
"4. c #6697C2",
"5. c #6696C1",
"6. c #6395C1",
"7. c #6897C1",
"8. c #6A97C0",
"9. c #6B96C1",
"0. c #6897C3",
"q. c #6A96C3",
"w. c #6A95C0",
"e. c #6D97C1",
"r. c #6E95C0",
"t. c #6C96C1",
"y. c #6798C3",
"u. c #6599C1",
"i. c #6B98C1",
"p. c #6E99C0",
"a. c #6D9AC1",
"s. c #7097C0",
"d. c #7797C0",
"f. c #7397C1",
"g. c #7299C1",
"h. c #7598C0",
"j. c #7399C3",
"k. c #7A9AC1",
"l. c #77A3C0",
"z. c #7CA5C2",
"x. c #7EA8C5",
"c. c #8496AD",
"v. c #8698AE",
"b. c #819CB6",
"n. c #8C9EB3",
"m. c #839EBA",
"M. c #909FB4",
"N. c #8FA1B6",
"B. c #84A2BC",
"V. c #8AA4BC",
"C. c #8FA9BF",
"Z. c #91A2B6",
"A. c #93A5BB",
"S. c #98A7BC",
"D. c #96A9BE",
"F. c #9AABBD",
"G. c #9AB0BE",
"H. c #809CC1",
"J. c #84A6C1",
"K. c #8EA7C1",
"L. c #82A9C4",
"P. c #8DABC3",
"I. c #83ACCA",
"U. c #93A7C0",
"Y. c #94ABC3",
"T. c #9BACC2",
"R. c #95AFC8",
"E. c #9FAFC8",
"W. c #96B0C6",
"Q. c #9EB1C5",
"!. c #95B2CA",
"~. c #9CB1C9",
"^. c #A0AFC3",
"/. c #A2B3C5",
"(. c #A5B8C7",
"). c #A3B4CA",
"_. c #A8B7CA",
"`. c #A7B9CD",
"'. c #AABBCD",
"]. c #A5B9D1",
"[. c #ABBCD2",
"{. c #B0BFD2",
"}. c #AEC1D6",
"|. c #B1C2D5",
" X c #B4C5DB",
".X c #B4C9DC",
"XX c #B4C8E0",
"oX c #BCCDE3",
"OX c #BED0E6",
"+X c #BFD3EB",
"@X c #C1D1E8",
/* pixels */
": : : : : o.> : > > > #.> > > a a a > > ,.i > ,.> ,.,.,.q.y.y.i.2.a a a a a 2.a a a > a > a 5 5 #.$.$.$.$.$.$.&.+.o.o.= o.= = = ",
"> o.: : #.5 #.: > > > > > > a a a a ,.a ,.#.,.a ,.a ,.,.q.w.q.w.w.s s w.w.s 2.w.2.2.a >.>.>.>.#.#.@.=.$.=.$.$.$.O.O.O.: : = o.= ",
"#.#.#.> #.#.#.5 > a a a a a > s w.a a s a ,.,.,.a s ,.,.t.t.t.w.f s s a i.w.i.w.w.2.,.,.4.4.2.>.=.6 #.=.>.:.=.;.5 @.: O.o.: o.= ",
"#.> #.#.>.>.a >.,.>.,.,.a a s ,.s s t.s r.i r.i ,.s t.s.t.f t.a.s i.f s s a i.i.w.2.>.,.4.q.4.>.>.a =.a >.>.=.=.5 @.@.@.#.o.#.#.",
"#.> > ,.,.,.2.s s r.r.s m i r.r.s x g.M x f x s B x s.x g.a.x M s s s i s s s s ,.s a i w.w.,.a a a a a a 6 a a 5 5 >.>.#.>.>.>.",
"a a #.#.,.,.w.t.,.s s.B m z r.f.x k x M A A x k A x R A R A R M s s i s a s s s ,.,.a a a w.,.a s d i d a a a a a a a a >.>.>.>.",
"a > i i w.i.s s m s z z z z A D k k k k A l l k R l R R R R A l l i i s s s s f i i i a w.w.s s i s d s i s a d s a a a a a u.a ",
"a a a i s s s s z B A J z z D D l l l l l R l l H R [ / ) ) H R b b l s k s.x s s a i s s w.t.s s i i i s i s s s s s a s a s a ",
"u a i d s s f x z z R A P P H P J G G G ( ( ( ( H / ( / [ ) ( U R R R b R s l i s s s s s s s s f l s i i i i i i a i s s a s s ",
"a a a s s a.s M s z A P P P U P J G G H G ( ( ( H H ( U [ [ m.[ ' ` ) R R M k k l x x k x t.s.x k b l l l i i i i i i i s s a s ",
"5 a >.u.d a.a.f x A A h.P P P U ( G G ( ( ( ( ( G ( ( m.m.[ m.k.k.` ` ` ` R ) R A R R R R g.h.h.k R k b k k k s i s B i m i s s ",
"6 6 a d u.i.i.a.s x A h.h.P k.U H G G H G ( ( ( G ^ [ [ k.m.H.H.} } } ` ) ) k.R R ) h.R d.R h.h.R R A x k k x z s.A B s s m m s ",
"3 6 6 d d d u.i.s s s.A d.h.k.d.H H H P H [ P U ( [ U m.H.H.H.k.( ( ( ( ( G / R ) A ) R R R h.) A R R k.z z d.d.j.j.j.j.r.r.r.r.",
"3 4 4 5 5 5 a a a s s r.d.d.d.A P H ( U ( U ( [ ( U U k.[ [ [ m.( ( ^ ^ ( G / / R A A A R A R R ) R R A f.f.d.A j.j.j.j.f.j.j.r.",
"2 4 3 4 5 5 5 a a a s r.s.j.d.d.P P P k.P ) [ [ k.k.k.k.k.k.) P / ^ G ^ G / / / H / A ) P A ) A R R d.d.d.d.f.j.j.q.j.j.j.j.j.j.",
", , , 4 2 > 5 5 > a ,.w.t.a.r.s.h.R A ) A k.k.k.k.k.k.k.k.R P R ) ( ( ( ( / / ` ) ) ) R ) h.) R A A A s.d.f.f.f.j.j.j.j.j.j.j.j.",
"1 X.1 = X.= : o.4 @.@.#.#.>.4.,.w.s r.r.s.d.j.j.s.s.d.g.g.j.j.g.~  .` `  .` j.k.R ` ` k.k.k.) R M ~ b ~ M R R ~ M M R R h.h.k.l.",
"X.< * * X.* = X.+.4 : #.@.#.#.#.a s i m r.,.r.a.t.a.t.a.a.t.a.a.f ~ f ~ ~ ~ ` R M M ~ h.R R R M M b f f M R ~ M M ~ M R R k.k.j.",
"O * O * * = = = 4 , 4 4 : 5 : > a > a a a a 2.2.p a d p 2.u.w.i.f f s f f f f f f M f M g.M x s i f f f b f M M ~ b b b M R h.j.",
"* * * * * < = = , 1 4 4 : : : > > > ; > > a 5 5 6 6 6 6 a >.>.d a d d d a d d p s f w.s f f s d f i f i s f f f f f s i M f g.~ ",
"O O O O X.X.* * 1 +., 4 6 1 2 , 2 2 2 3 > 4 5 5 6 6 2 6 4 6 6 6 6 5 6 3 6 6 3 3 6 5 a a a a a a u u d d s f i.f s i s s s s s s ",
"X.X.O X.X.O X.X.1 1 1 1 , 1 2 4 2 , 2 2 2 2 2 2 2 6 2 6 4 6 2 6 4 4 4 5 4 6 3 6 6 5 5 6 5 6 6 5 5 5 a p a a a d a d d a d i a f ",
"O O O O O O < X., < 1 , < 1 , 4 , 4 1 4 1 4 1 4 6 1 1 6 1 4 1 +.4 4 4 4 6 1 4 4 1 6 4 4 6 4 4 6 3 3 5 3 5 p d u.u.a a d s a w.u.",
"O O O O X.O X.< < < < < < , < , 1 1 4 1 1 , 1 1 1 1 1 1 1 +.+.+.1 1 1 < 1 1 1 4 1 1 4 4 +.1 4 4 3 5 5 6 6 6 6 d y.y.u.u.u.u.u.u.",
"O O O O O O O < < < < < , < , 1 < , < < < < , , < 4 < < 4 < 4 1 1 < X.X.< 1 1 1 1 1 1 1 1 1 4 1 , 2 4 4 &.6 :.6 u.6 5 a >.d :.u.",
"O O O O O O < O O * < < < < 1 < < < < , < , < < < , 4 < < < 1 < , < < X.< < 1 1 < < 1 1 1 X.X.1 4 4 4 6 6 6 4 6 +.6 4 5 6 $.:.$.",
"O O X.O O < < < & O < < < , 1 < < < < , < < < < , < < < < < < < < < < < O X.1 X.X.< X.X.+.X.X.X.1 4 +.1 1 1 2 4 4 4 4 4 &.:.:.&.",
"O X.O O < O < < O O , < < < < < < < < < < < < < < < < < < * * < O < < < X.O 1 O X.X.< X.X.1 X.X.1 < 4 1 1 1 1 1 1 1 1 1 4 +.+.4 ",
"O X.O O * O * * O & % O O , < , , < < 1 < 1 1 * < 1 1 < < < < < O < < < O 1 O 1 1 X.< X.1 1 < 1 1 4 < 1 1 1 1 = 1 = 1 1 +.+.+.+.",
"O O O O * * * * & O O < O O , < < < < 1 1 < < 1 < 1 1 < < 1 < < < O < < O 1 O 1 < 1 1 * < < 1 1 < < < 1 < 1 = < 1 1 = 1 X.+.+.1 ",
"X.* O X.* X.* * O O < < , O , < < 1 1 < X.= X.< X.1 1 X.X.X.X.1 < < < < < < X.1 1 1 1 1 = = 1 < 1 < < 1 < 1 < 1 < 1 1 X.X.X.X.1 ",
"X.* X.* * * * * < & & < , , , < , , 1 1 = * * = 1 1 1 1 X.1 X.+., , 1 1 +.1 +.X.4 1 1 : 1 1 , , < < 1 1 1 1 1 1 * = = 1 4 1 1 1 ",
"& , 4 4 4 , , 4 4 4 4 4 2 2 4 4 > 4 4 2 - 2 & 2 - - 4 2 4 2 4 4 6 , 6 2 6 , 2 2 2 2 2 2 2 2 2 2 2 2 2 2 2 4 2 2 , , 2 2 , 2 4 4 ",
"# % 2 3 2 % % % 2 % % % 2 2 3 2 - - ; - 3 3 3 3 - ; ; ; ; ; ; 3 3 3 3 % % 3 3 3 3 3 2 3 - ; % % 3 3 5 3 6 4 6 3 3 3 3 3 3 3 3 6 ",
"u p p p p p 6 p p p p p p p d d u u u u u u u u d f f p f i p p p p p  .f  .f p f f f f f f f f l.f a. .l.f a.f f f f f f  . .f ",
" . .x.x.x. .z.z. . . . . . .z.z.I.L.I.L.x.z.z...z. .z. . . . ... . . . . . .x. .I.x.I.x.L.x.x.x.x.x.x.x.x.x.x.x.x. .x. .z. .x. .",
"B.B.I.B.P.L.L.C.B. .B. .L.B.L.B.I.P.L.V.B.B.B.B.B.B...B.B...j j B...B.B.I.B.B.B.B.B.L.B...B.B...x.B.B.V.L.V.B.B.L.B.L.B. .B.L.B.",
"B.B.B.B.B.V.B.B.C.B.B.C.V.B.V.P.B.b.B.B.m...B...B.m.B.B.B.b.B.B.B.B.V.V.C.C.C.I.V.B.B.B.B.B.B.B.B.B.B.B.B.B.N.B.V.V.V.V.C.V.B.B.",
"N.B.B.B.V.V.N.B.B.N.B.V.B.V.V.V.P.V.V.V.K.K.U.V.V.B.B.B.V.V.B.B.V.V.V.V.V.V.C.B.V.B.N.B.N.B.B.N.b.B.b.B.B.V.V.V.V.V.V.V.V.V.V.B.",
"B.B.b...B.B.B.B.B...B.B.b.m.B.B.j m.b.b.m.j b.b.b.b.b.b.m.m.B.B.B.B.B.B.B.B.B...b.b.j b.j j j j h j v.b.B.m.m.m.m.m.m.m.B.b.b.b.",
"B.B.B.m.m./ G h ^ ^ b.B.B.B.m.] B...G j j ] B.j ..j j ..j j G h h h h h h h  .j j j j j ..j j j h h h c.h h g e y e e e y y y y ",
"t t g h g g t t w e t t g g g g g w w w r r r r r r t r t r r r w r w 0 9 9 9 0 0 0 w 9 r r w w q e q 8 8 8 8 8 8 8 8 8 8 8 8 @ ",
"9 9 7 7 q 9 7 7 7 q q 0 w w q q 7 + 7 $ 7 7 7 $ $ + $ + $ $ 7 9 $ + + + + + + + $ $ $ $ $ $ $ 9 o o . . . . o . . . . . . . o . ",
"+ + 7 @ $ + @ $       @ o X X X   + + $ $ $ +   + + + + $ $ $ $ + + + + + + + + $ 9 $ $ $ 9 + + . . . . . . o 7 7 . . 7 8 8 8 8 ",
"q 0 0 9 8 8 8 9 @ @ @ @ @ @ @ + @ @ 9 9 r w 9 9 r r r r t w w 0 9 9 @ 0 r r r 0 i r r w w 9 9 @ q e 8 e e e e e e e e e e e y e ",
"V.B.b.] ^ b.b.b.b.b.m.b.v.j j j ..j ......B...j ..C.B.B.B.B.............B.C.B.B.B.B.B...j ..j j b.b.m.b.m.m.m.m.m.m.m.m.m.V.V.m.",
"R.R.Y.!.Y.U.Y.W.!.!.!.W.W.W.!.W.C.C.P.P.P.P.C.P.P.P.P.C.C.C.P.P.W.P.P.!.!.!.!.!.!.!.P.P.C.C.P.W.U.U.U.U.U.U.Y.U.U.U.K.K.U.Y.Y.U.",
"U.D.U.D.R.R.R.Q.Q.Y.Y.P.D.C.A.A.C.C.C.D.W.Y.W.D.W.C.V.V.V.C.Y.Q.C.C.C.G.!.!.G.B.W.P.W.W.W.W.!.W.Y.Y.Y.Y.Y.Y.Y.Y.Y.U.U.U.Y.Y.Y.U.",
"Q.A.Z.Z.G.G.G.G.F.G.F.Z.Z.Z././.S.M.M.^.^.^.F.S.S.F.A.Z.S.T.^.F.N.A.U.W.U.A.D.U.D.A.D.D.T.Y.U.D.U.D.U.T.T.T.T.T.T.T.T.Y.T.Y.E.T.",
"}.(.(.}.|.|.(./.G./.(.(.(./.(./.{./.^._._.^.F.F.S.S.S.A.F././.^.Q.E./.).).T.Y.E.U.T.U.T.T.T.Q.T.T.T.E.E.Q.Q.T.U.T.T.T.T.T.T.T.D.",
"G.G.G.}.(.G./.G./.'.|.{.{._.(.(.{._./._._._._._.'.'._./.^.F.S.M.T.D.D.U.T.A.Z.N.U.T.D.D.D.U.T.E.U.D.D.D.T.T.Q.Q.R.T.T.T.U.D.D.D.",
"G.Z.G.G.F.F.F.G.Z.G.F.F.Z.F././.^.F.S.T.^._._.'./././._.'.{.|.|.).Q.Q.).).Q.E.T.T.F.D.A.D.T.T.Q.).T.D.Z.A.U.).).T.T.T.T.T.T.T.T.",
"|.(.}.}.(.(.G.G._._._.F.F./.(.(.^.^.S.M.M.M.U.U._._.^.^.S.M.M.M.D.N.N.D.D.A.N.A.T.Q.E.T.U.T.E.).`.).T.U.D.F.T.E.T.T.T.E.Q.Q.T.Q.",
"G.G.}.|..X|.|./.{.{.{.{.'.'._./.).).).^.^.^.^.T.M.M.M.A.S.Z.S.F.).E.T.E.).E.~.).D.U.F.D.A.D.D.D.D.D.F.T.T.T.T.D.T.T.T.Y.T.E.T.E.",
"Z.Z.G.G.G.(.G././././.F.F.F.F.M.^.)._.[._.{.{.[.{.'.[.{._.^.F.T.D.D.D.U.D.D.D.U.D.T.T.T.U.Z.A.A.n.N.U.T.E.T.T.U.T.T.D.D.D.D.D.A.",
"G.G.G.Z.Z.Z.G.(.F./.F.F.F././.F.M.^.).).{.{. X{.M.M.T.)./.T.S.T.T.T.T.E.D.A.D.T.).[.}.}.[.).E.).).).~.E.T.T.T.T.F.D.D.D.N.N.N.N.",
"Z.S.^.M.S.^.^.^./.F.F.F.F.F.^._.E.^.).).^.^.^.E.E.^.^.E.T.T.T.T.).).Q.).`.`.).~.E.).).).].[.{. X.X[.).).).].[.[.{.[.`.~./.E.T.D.",
").).).T.^.S.S.S.M.M.M.F.^._.{.{.@X@XoXXXXXXX{._.).].[.[.[.).^.^.).).E.D.U.F.D.D./.E.T.T.T.T.U.D.).T.E.^.).U.D.D.).~.E.T.T.T.D.A.",
"D.Y.T.T.U.^.S.S._./.F.F.^.^.^.^.).).).U.^.).).T.E.E.^.).).^.T.T.[.).~.E.T.T.T.T.n.n.n.A.D.T.T.Y.D.U.Y.).).).).).E.T.T.T.T.T.D.D.",
"F.W.^.^.U.M.U.U.F.S.M.F.F.F.F.S.U.M.n.v.M.U.E.U.U.M.M.M.U.U.T.U.D.A.A.N.Z.A.D.D.D.D.D.U.D.D.N.Z.Z.Z.D.F.T.U.^.[.).E.U.D.D.F.U.T.",
"D.T.Q.Q.E.E.].).S.E.S.E._.{._._.^.^.E.U.U.E.).^.U.U.M.H.U.Y.U.U.D.D.D.E.).).).~.D.D.U.S.M.n.n.n.U.D.D.D.A.N.A.Y.D.D.Z.N.N.D.D.D.",
"Y.Q.)./.E.[.{.[.{.{._._._._._.S.U.T.E.U.M.U.U.Y.M.M.M.U.A.M.v.c.c.v.n.n.N.N.n.n.n.n.M.n.m.n.N.D.U.D.S.T.T.D.Z.D.n.N.D.D.T.T.D.n.",
".XXX}.).E.S.S.S.S.E.E.S.S.S.^.S.U.Y.Y.Y.E.E.E.R.M.m.U.M.V.N.Z.V.T.T.T.T.E.T.U.D.^.Y.A.D.F.T.U.D.A.M.Z.U.T.U.D.U.T.E.E.E.E.E.U.D.",
"].}.[.).E.E.].E.[.[.[._.E._._._.).).R.E.~.].~.Y.~.E.E.E.~.].XX+X}.[.[.`.].[.).).~.U.A.T.{.oXOXoX X[.).).).).`.[.|.].Q.D.D.D.D.D."
};
