/* XPM */
static char *e1a5da49c9bb48299179b211e7259ef04vGxKipAqaLTVMwt[] = {
/* columns rows colors chars-per-pixel */
"64 64 214 2 ",
"   c #FF9B06",
".  c #FF9E0A",
"X  c #FFA406",
"o  c #FFAB05",
"O  c #FFA40A",
"+  c #FFAB0D",
"@  c #FFB303",
"#  c #FFBB04",
"$  c #FFB00D",
"%  c #FFBC0B",
"&  c #FFA313",
"*  c #FFAD12",
"=  c #FEA519",
"-  c #FEAA1C",
";  c #FFB415",
":  c #FFBD12",
">  c #FEB31B",
",  c #FEBA1D",
"<  c #FEAC26",
"1  c #FEAD29",
"2  c #FEB522",
"3  c #FEBC23",
"4  c #FEB32D",
"5  c #FEBB2A",
"6  c #FEAF30",
"7  c #FEBC33",
"8  c #FDB63A",
"9  c #FDB737",
"0  c #FFC303",
"q  c #FFCD01",
"w  c #FFCA0A",
"e  c #FFD304",
"r  c #FFDB05",
"t  c #FFD20C",
"y  c #FFDD0B",
"u  c #FFC214",
"i  c #FFCC13",
"p  c #FEC31B",
"a  c #FECA1B",
"s  c #FFD412",
"d  c #FFDA14",
"f  c #FFD51C",
"g  c #FFDB1C",
"h  c #FFE304",
"j  c #FFEC04",
"k  c #FFE609",
"l  c #FFEA0B",
"z  c #FFF404",
"x  c #FFF40A",
"c  c #FFEB13",
"v  c #FFE11B",
"b  c #FFE016",
"n  c #FFF312",
"m  c #FEF31B",
"M  c #FECD23",
"N  c #FEC02A",
"B  c #FEC526",
"V  c #FFD524",
"C  c #FEDB25",
"Z  c #FED42C",
"A  c #FFDA2A",
"S  c #FEC233",
"D  c #FDC43D",
"F  c #FEDA34",
"G  c #FEDB3C",
"H  c #FED43A",
"J  c #FEE225",
"K  c #FEE42B",
"L  c #FEEA2C",
"P  c #FEF423",
"I  c #FEF52C",
"U  c #FEE334",
"Y  c #FEEA33",
"T  c #FEE43B",
"R  c #FEEB3D",
"E  c #FFF532",
"W  c #FEF53C",
"Q  c #FDBE45",
"!  c #FCBF52",
"~  c #FDC24C",
"^  c #FDC844",
"/  c #FDD344",
"(  c #FEDC43",
")  c #FEDC4B",
"_  c #FDD34F",
"`  c #FCC75A",
"'  c #FDDD54",
"]  c #FDD55B",
"[  c #FCDA5E",
"{  c #FDD754",
"}  c #FEE442",
"|  c #FEEC42",
" . c #FDE44C",
".. c #FEEA4C",
"X. c #FEE352",
"o. c #FEEC54",
"O. c #FDE05D",
"+. c #FDEB5B",
"@. c #FEF25C",
"#. c #FEF549",
"$. c #FCCA64",
"%. c #FBCA6B",
"&. c #FBC565",
"*. c #FCD667",
"=. c #FBCB73",
"-. c #FACE7B",
";. c #FBD474",
":. c #FBDA73",
">. c #FBD37C",
",. c #FBDC7C",
"<. c #FDE363",
"1. c #FDEB64",
"2. c #FCE36D",
"3. c #FCEB6B",
"4. c #FEF165",
"5. c #FEF16B",
"6. c #FCE574",
"7. c #FDEC72",
"8. c #FCE67D",
"9. c #FCED7B",
"0. c #FEF174",
"q. c #FDF17D",
"w. c #FAD484",
"e. c #FAD58B",
"r. c #FADC88",
"t. c #FADB93",
"y. c #F9DC9C",
"u. c #F8D897",
"i. c #FBE484",
"p. c #FCEA85",
"a. c #FAE38C",
"s. c #FCEB8C",
"d. c #FEF283",
"f. c #FDF28C",
"g. c #FAE593",
"h. c #FBEE94",
"j. c #F7E79B",
"k. c #FAE59B",
"l. c #FBED9B",
"z. c #FCF194",
"x. c #FCF29B",
"c. c #F8DDA2",
"v. c #F7E6A4",
"b. c #F7E8A0",
"n. c #FAEDA2",
"m. c #F7E2AE",
"M. c #F9E3AB",
"N. c #F6EBAD",
"B. c #F9EEAB",
"V. c #FAE3A3",
"C. c #FCF2A4",
"Z. c #FDF3AB",
"A. c #F6E4B4",
"S. c #F8E6B2",
"D. c #F6ECB3",
"F. c #F9EAB2",
"G. c #F5E6BC",
"H. c #F5EDBB",
"J. c #FAEDBD",
"K. c #FDF4B3",
"L. c #FDF5BB",
"P. c #FEF8BF",
"I. c #F5EDC3",
"U. c #FAEEC3",
"Y. c #F4ECCB",
"T. c #F3E7C3",
"R. c #F7F0C5",
"E. c #FDF5C4",
"W. c #FFF8C5",
"Q. c #FBF4CB",
"!. c #FEF9CD",
"~. c #F3EDD3",
"^. c #F1EDDC",
"/. c #F6F1D4",
"(. c #FAF4D4",
"). c #FEF9D3",
"_. c #F6F2DC",
"`. c #F9F5DC",
"'. c #FEFADD",
"]. c #EFEDE3",
"[. c #EEEEEE",
"{. c #F1EFE4",
"}. c #F0EFEA",
"|. c #F5F3E5",
" X c #F9F6E4",
".X c #FEFBE4",
"XX c #F4F3EC",
"oX c #F9F7EC",
"OX c #FDFBED",
"+X c #EFEFF0",
"@X c #EFF0F1",
"#X c #F4F4F4",
"$X c gray96",
"%X c #F4F4F5",
"&X c #F6F6F6",
"*X c gray97",
"=X c #F6F6F7",
"-X c #F4F5F6",
";X c #F3F3F3",
":X c #F8F7F2",
">X c #FCFBF4",
",X c #F7F7F8",
"<X c #F7F8F8",
"1X c #F8F8F8",
"2X c #F9F9F9",
"3X c #F9F9F9",
"4X c #FAFAFA",
"5X c #FDFDFD",
"6X c gray99",
"7X c #FDFDFE",
"8X c white",
"9X c #FEFEFE",
"0X c #FEFFFD",
"qX c #FCFCFC",
/* pixels */
"8X8X2X[.[.2X8X2X;X[.;X8X8X;X[.[.6X8X2X[.[.2X8X0X[.[.;X8X8X%X[.@X8X8X2X[.[.2X8X8X+X[.%X8X8X%X[.+X8X8X3X[.[.2X8X0X[.[.;X8X8X;X[.[.",
"8X8X2X[.[.*X8X8X[.[.;X8X8X*X[.;X8X8X2X[.[.2X8X0X@X[.;X8X8X;X[.].>X8X<X[.[.2X8X8X+X[.;X8X8X;X[.+X6X8X2X[.[.2X8X8X[.[.;X8X8X*X[.[.",
"2X2X*X*X*X*X2X*X*X*X*X2X,X*X;X;X3X2X*X;X;X*X2X3X|.;X*X2X<X1X%X(.(.1X*X;X%X*X1XoXoX;X*X2X2X*X;X;X3X2X*X;X;X*X2X*X*X;X*X<X,X*X;X;X",
"[.[.;X8X8X;X[.[.2X8X*X[.[.2X8X6X@X[.;X8X8X;X[.{.W.>X2X[.[.<X8XP.Z.[.;X8X8X*X].H.OX8X2X[.[.2X8X8XXX[.;X8X8X%X[.[.8X8X*X[.[.2X8X8X",
"[.[.*X8X8X;X[.;X8X8X2X[.[.2X8X8X;X[.;X8X8X;X[.|.C.).<X[.[.2X6XC.h.].;X8X8X*XI.x.OX8X2X[.+X3X8X6X+X[.;X8X8X;X[.;X8X8X2X[.[.2X8X8X",
"2X2X*X;X;X*X2X1X;X;X*X,X2X*X;X;X:XoX1X;X%X*X<X;Xz.z.oX<X2X,XXXq.q.oX1X;X%X;Xx.z.XX;X*X2X3X;XXXXX<X<X*X;X;X*X2X,X;X;X*X2X2X*X;X;X",
"8X8X2X[.[.2X8X8X[.[.;X8X8X;X[.[.OXW. X[.[.2X8X8Xl.+.Q.8X8X%X^.1.4..X<X+X@X(.4.z.[.[.*X8X8X|.H._.8X8X,X[.[.2X8X8X[.[.;X8X8X;X[.[.",
"8X2X2X@X[.2X8X2X;X[.*X6X6X*X[.;X3XK.Z.{.@X1X6X6Xn.R l.6X8X%XY.} | ).<X+X@Xn.R C.+X[.*X8X>XC.n.XX6X8X,X;X+X2X8X2X;X[.*X2X8X;X;X[.",
";X[.;X8X6X*X[.;X2X8X3XXX@X<X8X2X;XI.3.K.>X%X+X;XK.L +.~.;X2XE.Y U D.;X6X.X1.K n.6X6X<XXXB.5.!.6X;XXX;X0X2X*X[.;X2X8X*X;X[.*X8X8X",
"[.[.;X8X8X;X[.[.8X8X3X[.[.<X8X8X@X^.9.@.W.%X[.+XE.U K j.[.2XK.A A b.;X8XK.K F D.8X8X,XH.o.q.OX8X[.[.;X8X8X;X[.[.8X8X,X[.[.2X8X8X",
";X;X*X1X<X*X;X;X*X2X X_.;X,X2X2X;X;XB.Y 3.Q.;X;XQ.( s 6.^.:Xl.a V g.oX X6.s ( R.<X<X(.<.L C.3X2X;X;X1X3X.X X;X;X*X2X2X;X*X*X2X*X",
"8X8X2X[.[.2X8X8X[.[.XXL.W.XX[.@X6X8X(. .v 9..X8X/.{ w _ E.|.r.: p a.XXG.H w O.(.@X~.9.v o.Y.[.[.6X8X:XH.n.oX8X0X[.[.*X8X8X;X[.[.",
"8X8X2X[.[.<X8X6X+X[.*X).d.z.~.[.8X8XoX8.f F x.OX^.*.% 5 k.Y.-.* > w./.t.2 % :.'.{.g.Z d p.|.[.;X8X.Xx.q.I.2X8X0X+X[.;X8X8X;X[.[.",
";X;X*X1X1X*X;X*X1X2X*X;XB.o.7.R.;X-X*XL.G w _ F.`.w.; + %.m.%.& & =.c.&.+ > w.|.A./ w ( D.*X2X:XR.7.o.Z.;X*X;X*X3X,X*X*X;X*X2X*X",
"[.[.;X8X8X;X[.[.8X8X2X[.].f.Y o.j.^.1X.X6.: > %.J.t.<   9 :./ # % / *.9   < e.c.%.; u :.~.4XOXZ. .L d.OX8X;X[.[.8X8X2X[.[.2X8X8X",
"[.[.;X8X8X%X[.;X2X8X2X+X+X(.4.b G i./.>XM.7 X 1 w.;.a e b P I E E I P c e M *.=.< o 8 V.{.(.h.F d <.(.8X8X;X[.;X2X8X<X;X[.*X8X8X",
"8X6X1X+X@XoXOX:X;X@X*X6X6X*XD.( t Z ,.T.G.&.& X C P W 5.z.K.W.!.!.W.K.f.@.I m g o & &.U.U.:.M t  .K.3X;X+X<X8X2XXX_.XX0X0X*X[.+X",
"8X8X2X[.[.:X).Z.D.~.XX8X8X%X{.j.H % 3 %.y.-.a c #.f.W.'.OX>X0X8X0X0X0XOX.XP.d.W l a >.c.%., % H C.>X2X[.[.3X.XP.l.H.XX8X8X;X[.[.",
"2X2X1X;X;X1XOXL.7.3.h.E. X;X;X_.a.5 o = ~ Y I 0.K.!.'.OXOX>X>X>X>X>X>XOX.X.X).Z.5.P L ^ & X 7 t. X6X:X_.H.h.5.0.K.XX*X2X2X*X;X;X",
"[.[.%X8X8X;X+X+X!.5.Y T 6.Z.).>XT.=.- X r I q.Z.P.W.).).'..X.X.X.X.X.X'.'.).W.P.C.5.P h o 1 >.(.{.Y.b.7.R L 1.H.2X8X1X[.[.3X8X8X",
"[.[.;X8X8X;X[.+X6X'.9.J d F *.k.G.c.~ y m 4.f.C.Z.L.E.!.!.!.!.!.).!.!.!.E.E.P.K.C.d.@.n l ` M.U.t.{ Z s K 9.Y.[.8X8X2X[.[.3X8X8X",
"1X1X*X*X;X1X1X1X%X%X`.h.G w u 7 ` >.Y x | 5.q.f.x.C.Z.Z.F.K.L.L.K.L.L.K.K.Z.C.l.z.q.1.E z L %.~ 2 % w ( s.`.1X1X%X;X*X*X1X*X*X;X",
"8X8X2X[.@X2X8X6X+X[.*XOXZ.{ , o & p z n R +.3.9.p.h.h.h.l.l.l.n.n.l.l.l.l.h.h.p.8.3.o.Y l z i . O 3 *.b.^.<X8X8X+X[.*X8X8X;X[.[.",
"8X8X:X{.{.oX>X6XXX[.*X8X>XU.=.1 O h z l K } X.<.2.6.8.i.p.s.s.s.s.s.s.p.p.8.6.2.<.X.} J h z j $ 8 w.J.XX+X,X8X2XXX].XXOXOXoX[.[.",
"+X+XXX!.C.f.s.l.C.K.R.I.~.`.U.w.V z j r d A T ) ' O.<.2.6.6.6.6.6.6.6.2.2.<.<.' ) G C d h j z C w.A.~.`.Q.K.M.l.z.f.f.x.R.:X6X6X",
"[.[.;X0X.XC.3.| L U T { *.>.t.w.m z j r r t V F G ( ' ' X.[ [ O.<.[ O.[ ' ) ( ( F V y e r h z n *.-.%.[ ) F J J | 0.Z.Y.].<X8X6X",
";X;X*X2X2X*X_.Z.3.U s w % > 1 B z j h r e e t f C F G G ( ) ) ) ) ) ) ( G G F Z f t e e r h j z u = $ # w f T 7.K. X:X%X;X<X2X6X",
"8X8X3X[.[.,X8X6X_.D.8.{ N *   q z h h e e e q q t f V Z F F F G G F F F Z C f s q q q e r r h z e . - 7 ] p.L..X[.[.;X8X8X%X[.[.",
"8X8X1X[.[.3X8X6X+X[.|.!.k.%.8 k z h r r e q q q q t s s f V V C V C V f f s w e q e q e e r h z l ~ =.y.T.oX8X0X+X[.;X8X8X;X[.[.",
"*X;X*X1X1X*X*X%X1X1X:XXX/.S.;.n z h r e e q e q q q q e t t s s s t t t e q q q q q q e e r h j x :.S./.|.oX;X1X<X<X*X%X%X1X1X1X",
"[.[.%X8X0XXX~.Y.L.K.l.r.>.=.] x j h r t e q q q q q e q q q e q q e e q q q q q q q q e e r h j z D ` ;.i.a.j.N.!..XoX[.+X2X8X8X",
"[.{./.W.x.q.1...T A V p > & + z j h r e q q q q q q q q q q q q q q q q q e q q q q q q t r h j z @ O * u i f K | @.0.f.B.(.>X8X",
"8X>X'.H.l.d.5...U A f p ; & + z j h r e e q q q e q q q q q q q q q q q q q q q q q q q e r h j z : = > B Z U } X.3.d.Z.W./.XX@X",
"8X8X<X[.[.>XOX'.H.v.j.g.r.=.^ x j h r e e q q q q q q q q 0 q q q q q q q q q q q e q e e r h l z { -.e.t.n.P.!.~.^.XX8X8X*X[.[.",
"2X2X<X;X@X<X<X<X;X;X;XOX(.F.;.n z h r e e q q q q q q 0 q 0 0 q 0 0 q q q q q q q q q e e r h j x :.S.~.XX;X2X2X%X;X%X2X<X*X;X;X",
"[.[.;X8X8X%X@X+X6X8XoXH.u.=.Q k z h r e e q e q q 0 q 0 0 0 0 0 0 0 0 0 0 0 q q q q q e e r h z j 2 ` t.L._.+X@X6X8X2X[.[.,X8X8X",
"[.[.%X8X8X%X[.+X.XL.i._ 5 * . q z l r r e e q 0 0 0 0 0 0 0 # 0 # 0 0 0 0 0 0 q 0 q e e e r j z e   o , / 2.j.~.4X8X2X[.[.2X8X8X",
"<X*X*X*X=X:X`.B.3.T s w % ; < p z j h r e q 0 0 0 0 # # # # # # # # # # # # 0 0 0 q q e r h j z V 4 2 : w s A +.x.!.;X<X*X*X*X*X",
"8X8X<X].Y.C.0.| K K T ' *.;.w.=.m z h r e q 0 0 # # # # # @ @ # @ # @ # # # # # 0 0 q e r h z n w.y.t.;.[  .T Y R +.z.).>X;X[.[.",
"8X8XoXY.C.z.x.C.n.F.R.(. X_.G.w.A z j r q 0 # # # @ @ @ @ @ @ @ @ @ @ @ @ # @ # # 0 w e r j z g >.U.'.^.Y.Q.E.L.n.h.x.Z.!.|.[.[.",
";X[.;XOX>XoX[.;X,X6X,X;X}.I.>.8 + h j r q 0 # @ @ @ @ o @ o o o o @ o @ @ @ @ @ # # 0 q r z j o 1 &.S.OX6X-X@X;X6X2X:X{.{.1X4X8X",
"[.[.*X8X8X;X[.[.6X8X6X^.V.[ B o O u z r q # # @ @ o o o o o o o o o o o o o o @ @ # 0 q h z f & o % / h.'.;X+X@X8X8X2X[.+X2X8X8X",
";X;X;X2X2X*X;X;X6X6X`.s.G i % 3 ` =.U j e # @ @ o o o X X X X X X X X X o o o o @ @ 0 e j L >.%.Q p w C 7.R.XX-X2X6X,X@X;X,X2X4X",
"8X8X*X[.[.2X8X4X}.Y.9.K d Z *.t.U.S.$.y r 0 @ o o X X X X X X X X X X X X X X o @ # 0 h j 8 u.G.B.8. .g v o.K.>X@X[.*X8X8X;X[.XX",
"8X8X<X[.[.2X8X0XI.1.Y | 7.N.Y.|.).w.1 X e e # o X X X X               X X X X o @ 0 h h o & &.G.>XOXE.g.<.R o.x.^.[.;X8X8X;X[.[.",
"%X*X*X*X3X*XoXK.0.5.x.I.|.*X,X Xt.S + = ^ U r 0 o X                         X @ 0 h L ` 1 o , :.(.,X*XoX XH.z.9.z.`.;X*X*X*X*X*X",
"[.[.%X8X8XoXT.C.E.OX1X@X+X,X>XC.H 0 2 $.V.w.M r e # X X                 X o 0 r j i %.c.-.7 # M a.^.;X8X8X;X].^.W.).oX[.[.2X8X8X",
"+X[.%X8X6XXX^.}.6X8X,X}.@X,XE.X.t V ,.R.Q.=.& o f c r w @ o o X X o o # e h l J + O ! A.Y.a.G s F b.XX8X8X*X[.@X0X0X3X[.+X,X6X8X",
"6X6X<X;X;X*X2X2X;X;X;X0X6X/.3.g U s.`.|.M.Q o < =.;.M e h k h h r h l k r a ;.e.8 o 5 g.:X_.j.) d ..Q.;X;X,X6X2X;X@X%X2X8X*X[.;X",
"8X8X1X[.[.*X8X8X[.[.;X8XOXf.K ..Z.OX2X^.:.: : $.A.u.6   9 *._ : % H :.^   = w.U.>., % *.'.%X].D.3.Y 7.^.[.<X8X8X[.[.*X8X8X;X[.[.",
"2X2X1X;X;X*X2X<X;X;X*X3XK.+.7.Q.3X6X1XH.( w / F._.e.2 o ` S.-.= . &.S.-.- $ =.`.U.] w A C.;X;XXX(.f.o.h.XX1X2X2X;X;X*X2X2X;X;X+X",
"+X[.;X8X8X*X[.;X2X8X,XY.q.x..X8X+X[.XXf.g A a.{.OX8.: , w.`.t.2 $ %.(.M.S # ] Y.>XF.( d 2..X8X6X@X^.B.d.W.;X[.;X6X8X*X[.XX1X8X8X",
"[.[.;X8X8X;X[.[.0X8XoXB.H.oX8X6X+X[./.+.v 6.^.+X'.<.w H S.:Xn.M u ,.|.).O.w ( I.8XOXh.K T Q.8X0X@X[.XX).K.|.[.[.6X8X<X[.+X,X8X8X",
"*X*X*X*X*X*X*X*X;X3XXX X1X1X*X*X1X:XZ.Y +.Q.*X*XQ.' s 2.`.;Xv.Z i g.oX|.i.f F H.*X*X`.9.Y h.;X1X1X-X1X*X|. X*X*X*X*X*X*X*X*X*X*X",
"8X8X1X[.[.2X8X8XXX[.;X8X8X;X[.+X6X>Xd.o.H.<X8X8XH.T K Z.8X;XN.F V C.,X[.S.T K K.@X[.;X).5.3.~.@X6X8X<X+X[.<X8X8X[.[.;X8X8X;X[.[.",
"8X8X2X[.[.2X8X6X@X[.;X8X8X%X[.@X6X).0.N.[.<X8X2XD.U X.'.8X*XT.T K L.2X+X^.7.L C.}.[.;X8XW.5.H.;X6X8X<X+X+X<X8X6X;X[.;X8X8X;X[.[.",
"[.;X*X2X2X;X;X;X2X8X*X;X;X*X2X2XXXZ.Z.:X6X%X;X;XK.| z.}.;X<X.X+.R R.*X6X2XZ.R h.2X8X*X;XXXK.Z.:X;X;X*X2X2X%X;X;X<X6X*X;X;X*X2X2X",
"[.[.*X8X8X;X[.[.6X8X*X[.[.*X8X8X{.H.|.8X8X%X[.[.n.4.(.[.+X2XOX0.o.~.%X8X8X_.3.p.>X8X2X[.[.oXW.OX[.[.;X8X8X;X[.[.8X8X*X[.[.*X8X8X",
";X;X*X2X2X*X;X;X2X2X<X;X;X*X2X2XXX|.*X2X2X*X;XXXx.x.:X;X;X1X:Xf.7.|.*X6X6X;XB.d.oX8X,X+X@X,X3XoX;X;X*X2X2X*X;X;X2X2X2X;X;X*X2X8X",
"6X8X2X+X[.2X8X2X;X[.*X8X8X*X[.;X6X8X2X[.+X2X8X>Xx.R.;X8X6X;X[.l.x.>X2X[.+X<X.XC.{.[.%X8X8X;X[.;X2X8X*X;X[.2X8X2X+X[.*X8X8X*X[.[.",
"8X8X2X[.[.2X8X8X[.[.;X8X8X;X[.[.8X8X*X[.[.2X8X>XR.].;X6X8X;X[.H.K.8X2X[.+X3X0XW.].[.;X8X8X;X[.[.8X8X,X[.[.*X8X6X[.[.;X8X8X;X[.[.",
"*X*X*X*X*X*X*X*X*X*X*X*X*X*X;X*X*X*X*X*X*X:X3X;XoX-X1X<X*X*X*X`.(.*X*X*X;X1X,XoXoX*X*X*X*X*X*X*X*X*X*X*X*X*X*X*X*X*X*X*X*X;X*X*X",
"[.[.;X8X8X;X[.[.8X8X2X[.[.2X8X8X[.[.;X8X8X;X[.+X6X8X<X+X[.2X8X6X|.[.%X8X8X;X[.+X6X8X2X[.[.,X8X8X[.[.;X8X8X;X[.;X6X8X2X[.[.2X8X8X",
"[.[.;X8X8X;X[.;X2X8X2X[.[.,X8X6X;X[.;X8X8X;X+X+X6X8X1X@X[.<X8X6X+X[.;X8X8X%X[.@X8X8X2X[.[.2X8X2X;X[.;X8X8X;X[.+X6X8X2X[.[.*X8X8X"
};
