/* XPM */
static char *_bb490551053496cd7fd5551b2d8fd90OITTSfHZjvSjYZ31[] = {
/* columns rows colors chars-per-pixel */
"64 64 240 2 ",
"   c #157E9B",
".  c #08899E",
"X  c #16829D",
"o  c #1B819F",
"O  c #1FA89E",
"+  c #0C8CA2",
"@  c #1B83A1",
"#  c #118DA4",
"$  c #1B8FA6",
"%  c #0D96A7",
"&  c #129DAC",
"*  c #1894A8",
"=  c #1C9FB2",
"-  c #2383A3",
";  c #2B86A4",
":  c #2E89A5",
">  c #2696AE",
",  c #3594AD",
"<  c #3696B0",
"1  c #2B90AB",
"2  c #19ABA7",
"3  c #1BBAAD",
"4  c #19B5AA",
"5  c #1EA2B2",
"6  c #1EA8B3",
"7  c #19BAB2",
"8  c #0FBFAB",
"9  c #29AAA8",
"0  c #32ACAB",
"q  c #24BBAC",
"w  c #25B5AA",
"e  c #28A8B5",
"r  c #39ABB5",
"t  c #3CADB9",
"y  c #35ABB6",
"u  c #23B6B3",
"i  c #24BBB3",
"p  c #29BCB8",
"a  c #38B6B7",
"s  c #33B5AE",
"d  c #47A9BA",
"f  c #48B7B9",
"g  c #5BB4BD",
"h  c #43B8AF",
"j  c #63B3BE",
"k  c #15C1AE",
"l  c #14C5B3",
"z  c #1BC4B3",
"x  c #1BCABB",
"c  c #1BC7B7",
"v  c #23C4B4",
"b  c #2BC4B4",
"n  c #24CABB",
"m  c #28C7B9",
"M  c #33C4B5",
"N  c #32C5BA",
"B  c #3CC4BC",
"V  c #35C9BC",
"C  c #3BC8B7",
"Z  c #26C1AF",
"A  c #44C3B5",
"S  c #43C6BA",
"D  c #4CC4BA",
"F  c #46CBBB",
"G  c #4CCABB",
"H  c #49C5B5",
"J  c #51CBBD",
"K  c #57C8BC",
"L  c #4BD0BE",
"P  c #57D0BF",
"I  c #6CCDBD",
"U  c #63CBBB",
"Y  c #73CCBE",
"T  c #7ECDBD",
"R  c #7BC7B6",
"E  c #7BD0BE",
"W  c #6ED1BF",
"Q  c #38B5C2",
"!  c #4AACC1",
"~  c #5AACCD",
"^  c #57A9CA",
"/  c #4ABAC7",
"(  c #5CBBC6",
")  c #5DBDCC",
"_  c #56B8C6",
"`  c #5CADD2",
"'  c #57ABD0",
"]  c #5EB5D1",
"[  c #63BDCA",
"{  c #63B9C5",
"}  c #62B3D5",
"|  c #67B5D9",
" . c #78BBDD",
".. c #6CB7CC",
"X. c #7ABCE2",
"o. c #35CBC1",
"O. c #31CEC4",
"+. c #4DCCC3",
"@. c #44C8C4",
"#. c #54CCC3",
"$. c #5ACDC3",
"%. c #5AC6C6",
"&. c #43D2C2",
"*. c #54D2C5",
"=. c #5CD1C7",
"-. c #64CDC3",
";. c #6BCEC2",
":. c #67C5CB",
">. c #75C9C5",
",. c #65D3C3",
"<. c #6CD3C4",
"1. c #66D3CB",
"2. c #72D2C4",
"3. c #7CD3C4",
"4. c #7CD8C7",
"5. c #7CD4C9",
"6. c #75DBCB",
"7. c #7BDBCB",
"8. c #73D6C8",
"9. c #69C8D2",
"0. c #74CBD4",
"q. c #7AD4DC",
"w. c #75D3DA",
"e. c #68D0D3",
"r. c #78DCE5",
"t. c #7DE7EB",
"y. c #D6BCA6",
"u. c #CFB49F",
"i. c #84CDBE",
"p. c #8ACCBD",
"a. c #97CDBE",
"s. c #92D1BE",
"d. c #DBC3AC",
"f. c #E3CBB4",
"g. c #E5CCB6",
"h. c #EAD2BB",
"j. c #84B9DD",
"k. c #8BB9DD",
"l. c #87B6DB",
"z. c #94BEDF",
"x. c #9CBFDC",
"c. c #83BCE3",
"v. c #8BBCE2",
"b. c #81BFE8",
"n. c #92BEE3",
"m. c #98BFE2",
"M. c #A0BFDB",
"N. c #85CEC2",
"B. c #8BCEC1",
"V. c #82D4C4",
"C. c #85D3CA",
"Z. c #8BD4CC",
"A. c #83DBCA",
"S. c #88D8C9",
"D. c #9DD4C6",
"F. c #91D5CD",
"G. c #96D3C4",
"H. c #9AC2DF",
"J. c #85D2DA",
"K. c #8BD0D2",
"L. c #A1CFC2",
"P. c #AAD9C7",
"I. c #A5D5C6",
"U. c #BAD6CA",
"Y. c #B1DCCC",
"T. c #BBDACC",
"R. c #B8D6C7",
"E. c #A5C5DE",
"W. c #ACC9DE",
"Q. c #A9C7DF",
"!. c #B1CCDE",
"~. c #B9DAD4",
"^. c #86C3E7",
"/. c #8CC5E9",
"(. c #8AC3E8",
"). c #94C2E5",
"_. c #9BC4E4",
"`. c #93C2E9",
"'. c #9BC5E9",
"]. c #83DBE4",
"[. c #A3C5E3",
"{. c #ACCAE3",
"}. c #A7CAE6",
"|. c #B2CDE2",
" X c #B9CFE4",
".X c #BBD3E4",
"XX c #B8D2E8",
"oX c #87E7EB",
"OX c #88EBF1",
"+X c #99ECF6",
"@X c #8BF3F7",
"#X c #98F5F8",
"$X c #94E8EF",
"%X c #A5FBFE",
"&X c #A1EDFA",
"*X c #85E2D0",
"=X c #CFCEC4",
"-X c #CCCEC9",
";X c #C7CEC7",
":X c #D1CEC5",
">X c #D2CEC9",
",X c #C5D5C6",
"<X c #CED3C6",
"1X c #CCD8C7",
"2X c #C5D5CA",
"3X c #CCD4CA",
"4X c #C2DCCC",
"5X c #CCD9CA",
"6X c #C3D8C6",
"7X c #D3D2C6",
"8X c #DBD3C6",
"9X c #D3D4CB",
"0X c #DBD3CA",
"qX c #D3D9CB",
"wX c #D8DBCD",
"eX c #D4D7D0",
"rX c #C3DFD0",
"tX c #E1D6CB",
"yX c #E4D9CC",
"uX c #EDD9C4",
"iX c #F3DCC5",
"pX c #F4DEC9",
"aX c #E7DDD1",
"sX c #FAE3CD",
"dX c #F6E1CB",
"fX c #EDE2D4",
"gX c #EFE5D9",
"hX c #E7E0D0",
"jX c #F4E5D6",
"kX c #FAE7D4",
"lX c #FCE9D5",
"zX c #F6E9DC",
"xX c #FCEBDB",
"cX c #F5E7D9",
"vX c #FFF1DC",
"bX c #C5DBEB",
"nX c #C7DDEB",
"mX c #FDEEE1",
"MX c #FEF1E3",
"NX c #CAE0EE",
/* pixels */
").n.v.n.n.n.n.n.`.n.`.`.`.`.`.`.m.'.n.'.'.'.'.'._.[.'.[.[.[.[.}.}.}.}.}.[.[.{.}.XXXXXXXX{.|. XbXbX XbXbXnXNXNXNXnXNXNXNXNXbXbXnX",
"'.'.`.).n.n.n.n.m.`.n.m.`.`.`.n.b.n.n.n.n.n.'.'.[.'.m.[._.[.[.[.XX}.}.{.{.{.}.XXXX|.}.{.|.W. X X X X X X.X.XXXbXbXnXnXNXbXbXbXbX",
")._.).m.z.z.n.n.m.n.n.n.n.n.n.b.v.v.v.v.n.`.`.`.'.'.[.'.H.)._.[.[.}.[.[.[.[.}.}.{.}.{.{.Q.W.|.W.!.W.{.!.|.|..X.XXX.X.X.X.X~.~.!.",
"k.k.k.k.k.k.k.k.v.n.n.v.v.n.n.n.v.v.l.v.b.n.`.`.'.).'.).H.H.H._.'.)._.H.H.E.[.[.E.E.E.[.Q.Q.E.M.Q.Q.Q.Q.W.W.W.W.!.|.!.!.W.!.!.W.",
"l.l.l.l.l.l.l.k.k.k.k.k.v.l.k.l.v.v.v.l.n.n.n.n.).).m.z.z.H._.).m.m.m.n.H.[.[.m.M.x.M.M.[.[.E.M.Q.Q.W.Q.E.W.W.[.{.W.W.|.W.W.W.W.",
"l.l.j.l.j.l.j.k.k.c.v.l.v.l.c.c.l.c.c.c.b.b.n.n.).).n.n.k.v.`.`.`.m.n.m.)._._._.m.m.m.[.[.[.[.[.[.M.[.H.H._.E.}.[.[.}.[.}.Q.[.[.",
" . .j. . . . . .c.X.X.X.l.X.l.c.l.c.b.v.b.n.b.b.c.v.v.v.(.n.n.n.n.`.n.n.`.`.m.`.n.`.m.).m.n.).).n.`.).)._.)._.'._._._._.[._.[._.",
"..|  .| 0. . . .X.X.X.X.X.X.X.X.X.b.b.b.b.b.b.X.0.b.b.b.j.0.b.b.^.b.b.b.(.(.(.(./././.(.b.(.b.(./.^.^.^./.]./././././.`./././.`.",
"} | ..~ } } } } ` ` | | | | | | } } } X.| | X.| ` | } } ` } } } ` ` ' ' ' ` ` ' ` ` ` ` ` ` ` ` ' ) ] ] ^ ^ ~ ' ] ~ ^ ^ ^ ' ' ^ ",
": : : : ; : : :     :     :     - -               ;       - -   @ @   @ @ @ @   @ @ @   @   @   X X X X X X X X X X             ",
", , , , , , < < ^ : , < < : d < > > > > < 1 $ - 1 $ $ # $ > $ # # # # # # * * # # # # # # # + + . . . # % + + . + + + + + + + . ",
"d d d d d d ! ! ^ ^ ! ! ^ ! ! ^ < Q Q Q Q y e e Q e e e e e e 5 5 5 5 5 5 5 5 = = = = = = = * & % & % & & 2 & 2 2 % % & & & % % ",
"{ { { ~ ..[ [ [ [ ( ) ) ] %.] %.%./ / / / / / Q Q Q Q / Q Q Q y Q Q Q a Q Q Q Q Q Q Q Q Q y Q y a u e e e e e e e e e e 6 e 6 5 ",
"j j j j j j j ( ( g ( ( ~ ( ( ] f g _ / / f d d d t t t t y y y t t < y r y t t t Q t r y y y t t r y 0 0 e e > e e e e e e e 5 ",
"......l...>...>...>.>...>.:.:.[ j :.{ { ( [ [ [ ( ( ( ( ( ( %.9.0.:.[ _ ( { { ( { ( ~ _ ^ g _ { [ :.:.9.9.) _ _ %.) %./ / %./ / ",
"F.K.N.C.J.J.J.J.J.J.0.0.0.0.:.:...:.:.0.0.w.q.q.q.w.w.r.r.].OX#X%X%X$X].].r.0.0.q.q.w.0.0.0.w.q.J.oX+X+X+X$XoXoXOXr.r.r.r.r.r.w.",
"&X&X$X$X&X+X&X+X+X$XoX].].r.0.9.e.9.%.-.9.w.t.@XOXOX@X@X@X@X@XOX#X#X+XOX@X#X#XOXOXOX$X+X#X#X+X$X#X%X%X%X%X#X@X].oXoXt.t.OXOXt.t.",
"{ g g h g f f f #.D / f / f h 0 0 w 0 9 9 s s s 0 0 s r a a r y f f h s a S h s h a D #.1.1.-.-.K g K K K f h 0 0 9 9 0 0 e 9 9 ",
"w 9 O O O w 9 O O O O 2 2 w 2 4 u 3 u u u u u u u u p p p p p u i i i 4 3 q 3 3 4 4 4 w w w w 9 O 9 9 w s w w O w 4 2 2 7 7 4 & ",
"M q w w M M M M q q 3 q q Z Z b i i i i p m p p 7 6 u i p p p p m v 7 7 4 3 3 3 8 k 3 3 3 3 q q 4 O w w b b i k 3 4 7 7 8 7 7 8 ",
"G H h A H P L G h A f H D S F F S S B B a o.S S a a B a a @.@.@.@.o.a N N N N b q q p M M B B B C M M M C V Z Z i i 7 z 7 7 c 7 ",
"2.;.I ;.W W <.I U U -.-.-.2.<.1.1.1.1.1.e.1.1.%.K %.#.%.#.%.%.1.=.#.f +.F G D @.J P #.J J J G J G H F F L C C M M M N M Q O.O.O.",
"V.C.N.N.N.C.V.V.C.C.Z.J.Z.K.K.C.2.;.I I 2.8.<.2.8.8.<.8.8.8.7.6.5.2.2.8.8.8.8.<.<.<.8.8.6.6.7.7.7.7.7.7.6.6.6.6.<.<.,.,.,.=.=.1.",
"F.F.F.F.F.F.F.F.Z.Z.F.F.F.Z.Z.Z.S.V.E T 3.C.A.A.3.3.4.C.4.4.4.3.C.3.3.C.3.W 3.4.4.4.A.7.A.A.*XA.A.*XA.A.A.A.7.*X7.7.6.8.<.I <.<.",
"F.F.Z.Z.F.F.F.F.F.F.F.Z.Z.Z.Z.V.V.V.C.C.C.V.V.V.A.A.3.E 2.3.2.Y 4.C.5.5.>.>.Y Y 4.4.4.E E 4.A.A.V.A.4.4.A.*XA.4.4.4.E I W E W W ",
"N.N.S.Z.F.Z.A.S.S.Z.Z.A.K.Z.Z.C.A.A.A.A.7.4.4.8.8.8.2.2.2.2.<.<.;.8.2.2.2.<.<.2.W <.W U W W <.W W W W W W ,.W ,.U P P P P P P J ",
"3.3.E 3.C.5.5.3.5.5.5.5.5.5.5.2.<.e.1.1.1.1.1.1.$.#.#.#.#.#.#.#.*.*.#.*.*.*.*.*.P *.*.P *.*.*.*.L L L L &.&.L L F C C L &.C C C ",
"2.<.2.;.;.<.;.<.2.<.<.-.-.;.-.-.#.*.+.#.+.+.@.@.S B B B B o.V V o.o.o.o.o.o.V o.n V V b b V M b Z Z n b b b n b c z c n n n z n ",
"-.P K K $.$.$.P #.#.#.D G G D S &.O.o.o.O.m m 7 O.n n n x n x x c x c l l l l c z l k z k k k k k k z z z z z k k 8 k l x l l l ",
"f H D D J G S A A S S S S F S M N O.m m m m v z n x c x x x x x l l l l l l l c n z z z x z n n v v n v Z z k k z z l z x z l c ",
"D D D K #.+.D f D +.+.+.+.+.@.S a M M M N N N M m b b Z n n n n m m b v b b V V C b M C C C C C C C C M M M M M M b M Z Z Z Z Z ",
"I -.-.U -.-.-.-.-.1.=.=.=.=.$.D G G A S D F A C M C a C C C C F F S A A A H G J H L P P P P P P L H H H H L L P L P P L P L L L ",
"3.3.3.>.3.3.E >.Y E >.2.>.2.2.2.2.<.<.<.<.,.<.,.U U U ,.,.,.W ,.;.I 2.I Y Y ;.Y Y Y Y >.>.2.>.2.3.<.2.W W 2.W W W W I U U U U U ",
"p.p.B.N.B.p.p.i.p.p.p.B.p.p.B.N.i.T 3.T T T T T 3.E 3.3.3.i.3.V.N.i.V.V.N.i.N.i.i.p.i.p.B.p.B.i.i.i.i.i.i.i.i.i.R R R R i.R R R ",
"a.L.L.L.I.L.L.L.I.L.L.L.I.I.L.I.D.D.D.D.D.D.D.D.I.D.D.I.I.D.I.D.D.D.D.D.D.D.D.D.G.G.G.D.D.I.D.D.G.s.s.s.s.s.s.s.s.s.s.s.s.a.a.s.",
"R.R.R.R.R.R.R.R.R.R.U.R.R.R.U.U.T.T.~.T.T.T.T.~.T.T.T.~.rXT.~.~.~.Y.Y.Y.Y.Y.Y.Y.Y.Y.Y.P.Y.Y.Y.Y.P.P.P.P.P.P.P.P.P.P.P.P.P.P.P.L.",
";XU.2X2X2X2X2X2X2X2X2X2X2X3X2X3X2X5X3X5X3X5X5X5X5X5X5X5X5X5XeX5XrXrXrXrXT.rXT.rXrX4X4X4X4XrX4XT.T.4XT.6X4X4X6XT.6XT.T.R.f.T.R.R.",
";X,X2X2X2X2X5X2X3X3X3X3X5X5X3X3X3X1X9X3XqX1X9XqX5X9X9X5XqX7X5X3X1X1X6X1X5X5X5X5X5X1X5X1X5X5X5X1X6X5X1X1X4X1X6X1X6X,X1X1XT.4X6X6X",
"R.,X,X,X6X,X2X2X5X5X5X5X5X5X5X5XqXqXqXqXqXqXqXqX1XqX9X3X1X1X7X1X1X1X5X1X1X1X5X5X1XqX1X5XqXqX9XqX1X7X1X1XwXqX1X<X<X<X1X1XqX5X1Xh.",
"6X6X6XR.4X4X5X5X2X3X5X5XeX5XeXeX1X1X5X1XqX1X1X1XqX5X5XqXqX5X5X3XqX1X5XqXwXwXqXwXwXqXwXqXwXwXwXqXwXwXwXwXwXqXqX7XqX<X7X7X1X6XT.f.",
"6XU.4X4X2X4X3X4X2X2X2X3X2X3X2X3X5X1X2X5X5X3X5X1X3X,X5X5X5X1X5X5X5XqXqXqXeXqXqXqXeXqXqXqX9XqX9XqXqX9X9X9XqX9X9X0X7X7X9X7X<X9X9X7X",
"6X2X4X4X2X4X2X;X;X-X2X2X;X2X;X3X3X,X<X,X,X,X3X,X3X2X1X5X5X5X5X3X5XqXqX5X5X9X9XqX5X9X9X9X9XeX9XqX9X9X9X9X9X9XeX9X7XqX9X9X9X9X9X9X",
"3X2X3X3X-X-X;X;X-X;X-X-X-X-X-X>X<X<X3X-X-X3X<X<X<X3X3X9X3X5X3X3X3X3X5X5X3X3X3X5X3X3X5X9X9X9X3X9X9X9X9XeXeX9XeXeX9X9XeX5XeX9X9X9X",
"-X-X;X-XeX-XeX-X-X-X-X>X>X>XeX>X9X9X<X3X<X9X-X<X=X9X9X7X9X<X>X9X5X3X3X5X3X3X9X3X3X<X-X<X3X9X9X9X9X9XeXeXeXeXeXeX9X9XeXeXeXeXeXeX",
"-X=X-X-X-X>X>X>X-X:X>X>X>X>X>X9X>X:X-X=X:X:X=X:X>X7X>X:X>X7X7X7X9X<X1X1X<X<X7X<X-X9X9X9X7X9X9X9X9X9XeX9XeX0XeXeXeX9X>XeX9XeXeX9X",
">X=X=X;X-X>X>X:X=X=X:X:X>X:X>X>X:X:X:X,X:X:X:X:X7X7X>X7X>X7X7X8X9X9X9X9X9X9X>X9X9X:X7X7X8X7X9X>X9X0XeX0XeX>XeX0X0X0XeX0X9X9XeX0X",
":X=X<Xf.=X:X=X=X=X<X<X=X7X<X<X=X7X7X7Xf.<X3X:X7X7X7X7X1X7X7X7XqX7X7X8X7X7X8X7X8X7X8X8X>X8X>X8X8X>X0X0X0X0X0X0X0X0X>X0X>X0X0X0X0X",
"=X:X:X:X7X7X7X9X7X7X7X7X7X7X<X2Xf.7X7X:X7Xf.7X7X7X7X:Xf.7X7X7X8X8X8X8X8X8X8X8X8X8X8X8X8X8X8X8X8X0X8X0X0X0X0X0X0X8X0X0X8X0X0X0X0X",
"8X0X8X:X0XtX0XtX:X0X>X0X0X0X0X0X>X8X>X8X8X8XwX8X8X8X8XwXwX8X0X8X8X8X8X8X8XtXtXtX8X8XtXtXtXtX8X8X0X8X0X0X0XwX0XwXyXtXtXtXyXaX0XtX",
"yXtXtXtX0X0XtX0X8XtXtXtXtXtXtXtXtXtXaXaXhXhXhXgXgXgXfXfXhXhXhXyXuXuXtXtXtXyXuXtXfXjXfXdXpXaXuXyXaXaXaXaXhXhXaXaXyXaXyXaXaXtXaXtX",
"mXmXzXzXmXgXzXcXjXcXzXzXmXmXmXmXmXmXmXmXMXMXMXMXMXzXvXzXzXcXjXgXfXfXfXfXjXjXfXgXjXaXfXfXaXaXyXtXwXaXyXyXyXyXyXwXtXtXyXyXaXtXtXtX",
"mXmXmXxXmXmXmXmXmXmXmXmXmXmXmXmXzXmXzXmXzXvXMXMXzXzXmXvXzXzXzXzXzXmXzXxXzXzXmXmXcXxXzXzXzXzXcXcXcXgXgXgXgXgXgXgXaXgXaXgXaXaXaXaX",
"mXcXzXxXmXxXmXmXmXmXmXxXzXxXzXzXzXzXzXzXzXzXxXcXMXvXmXmXmXmXmXmXmXmXmXxXmXmXmXmXxXmXmXmXmXmXmXmXMXMXmXmXmXmXMXzXMXmXmXmXmXmXmXmX",
"mXmXxXmXmXmXmXxXxXxXxXxXmXmXmXmXxXxXmXmXmXmXmXmXmXmXMXxXxXzXmXmXmXmXxXmXxXxXmXmXxXmXxXmXmXxXmXmXzXmXmXzXzXzXzXzXMXMXMXmXmXmXmXmX",
"jXkXcXkXlXzXcXkXkXkXzXlXxXlXxXxXzXcXzXcXxXxXzXxXzXzXzXzXxXxXxXxXxXxXmXxXxXxXmXmXmXmXmXmXmXmXmXmXmXvXMXvXMXvXvXmXxXxXxXxXxXxXzXzX",
"kXcXkXkXlXlXlXlXlXzXlXxXxXxXxXmXmXmXxXmXxXxXzXxXvXzXxXxXxXxXmXxXmXmXmXmXmXxXmXmXmXxXmXxXxXmXxXxXzXzXzXvXmXmXmXmXmXmXmXmXmXmXxXmX",
"lXlXlXlXxXvXlXvXlXlXxXlXxXxXlXlXzXxXzXxXzXxXxXzXxXxXxXxXxXxXxXmXxXkXxXxXxXxXxXxXvXxXxXmXxXxXxXxXlXvXlXvXxXvXxXvXxXxXxXxXxXvXxXxX",
"xXxXjXjXxXlXlXzXlXxXlXxXlXxXxXlXxXxXxXzXxXzXzXxXxXxXxXxXmXmXxXxXxXmXxXmXmXxXxXmXvXvXvXxXmXxXxXxXxXzXlXlXxXlXxXvXxXxXxXlXxXlXxXlX",
"lXlXlXlXlXlXcXlXxXxXxXxXxXxXxXlXzXzXxXxXzXxXzXzXxXxXxXxXxXxXxXmXxXxXkXkXxXkXxXxXlXlXlXvXxXxXxXxXvXlXlXlXkXkXkXsXlXkXkXlXvXlXxXvX",
"lXcXjXlXlXxXlXlXlXxXxXxXlXlXxXxXxXxXxXxXzXzXzXxXxXxXxXxXxXxXxXxXkXxXxXxXkXxXkXxXlXlXlXlXxXlXxXlXkXkXlXsXsXdXdXdXiXh.uXdXsXsXsXlX",
"jXjXjXlXzXzXvXcXvXzXzXlXxXvXlXlXcXkXxXkXxXxXcXxXxXxXxXcXxXxXxXxXlXlXkXkXxXxXxXkXlXlXlXlXlXlXlXsXkXlXlXsXsXdXiXh.g.f.d.g.g.g.h.iX",
"jXjXjXlXlXlXlXlXzXlXvXvXxXlXzXlXxXkXcXxXxXkXxXxXxXxXxXkXxXlXcXkXsXpXiXiXiXuXiXiXdXsXsXsXsXsXlXlXsXlXlXvXlXsXsXdXuXh.y.y.y.y.d.g.",
"lXlXjXlXzXvXzXzXlXvXxXxXzXlXlXcXcXkXxXkXcXkXxXxXxXcXxXxXxXcXlXkXpXiXuXh.g.g.f.d.f.f.f.h.iXiXiXdXiXdXsXsXsXkXsXkXsXiXg.d.y.y.y.d.",
"zXzXcXlXlXzXlXcXlXlXzXzXlXlXcXcXkXcXcXcXxXxXkXxXxXxXxXkXlXlXzXlXkXpXiXuXg.g.d.d.d.y.d.d.d.d.d.d.f.f.h.h.iXiXsXsXsXsXiXh.f.y.y.y."
};
