/* XPM */
static char *_4d317aebcf8402d91460d64d11becdc3NomWMNhCLBcMzKS[] = {
/* columns rows colors chars-per-pixel */
"16 16 253 2 ",
"   c #671112",
".  c #761212",
"X  c #721412",
"o  c #7A1213",
"O  c #781319",
"+  c #74181B",
"@  c #751B1D",
"#  c #761D1F",
"$  c #722221",
"%  c #7C2224",
"&  c #940D0A",
"*  c #8A1204",
"=  c #8B120A",
"-  c #8E1409",
";  c #990711",
":  c #940B12",
">  c #9B0F18",
",  c #861215",
"<  c #81121B",
"1  c #8D1419",
"2  c #841818",
"3  c #841A1C",
"4  c #811D1D",
"5  c #801E1D",
"6  c #8D1D19",
"7  c #8B181F",
"8  c #8D1D1C",
"9  c #901510",
"0  c #901412",
"q  c #911014",
"w  c #951315",
"e  c #991113",
"r  c #911810",
"t  c #991812",
"y  c #961319",
"u  c #97111A",
"i  c #93161A",
"p  c #91131E",
"a  c #95131D",
"s  c #91141C",
"d  c #93141D",
"f  c #92141F",
"g  c #94171D",
"h  c #9D1219",
"j  c #9F1218",
"k  c #9D151F",
"l  c #951B18",
"z  c #911F1E",
"x  c #9A191E",
"c  c #9E191E",
"v  c #9D1D1E",
"b  c #A01319",
"n  c #A6131B",
"m  c #A0151A",
"M  c #A11F1D",
"N  c #A81C1B",
"B  c #A91A1C",
"V  c #85221C",
"C  c #9D201E",
"Z  c #A4231D",
"A  c #AA251E",
"S  c #851521",
"D  c #8A1820",
"F  c #8B1921",
"G  c #841E29",
"H  c #8B1F2F",
"J  c #921620",
"K  c #9E1423",
"L  c #951D26",
"P  c #9D1B25",
"I  c #A21327",
"U  c #A11E24",
"Y  c #A41C26",
"T  c #A81B21",
"R  c #802522",
"E  c #8A2022",
"W  c #882426",
"Q  c #882927",
"!  c #832E2B",
"~  c #982626",
"^  c #992727",
"/  c #962A27",
"(  c #942329",
")  c #9A212A",
"_  c #872733",
"`  c #842A34",
"'  c #862B34",
"]  c #872D37",
"[  c #9C2237",
"{  c #9C2E37",
"}  c #84373D",
"|  c #8B343D",
" . c #833B3F",
".. c #853A3F",
"X. c #9E3136",
"o. c #92363B",
"O. c #96303D",
"+. c #A12120",
"@. c #A32121",
"#. c #A82128",
"$. c #B12224",
"%. c #A12A30",
"&. c #A92B36",
"*. c #A32F3A",
"=. c #AB363E",
"-. c #863D44",
";. c #843E46",
":. c #A53241",
">. c #984245",
",. c #914248",
"<. c #91464B",
"1. c #8B5056",
"2. c #8F5458",
"3. c #925159",
"4. c #A34847",
"5. c #AA4A4E",
"6. c #AE5551",
"7. c #A55E5A",
"8. c #A35B5E",
"9. c #A6635D",
"0. c #925B61",
"q. c #81666F",
"w. c #986E70",
"e. c #99797A",
"r. c #A76364",
"t. c #AB6367",
"y. c #B06164",
"u. c #B46266",
"i. c #A4777A",
"p. c #AA7A78",
"a. c #B37374",
"s. c #B87071",
"d. c #B67C7A",
"f. c #BE7E7C",
"g. c #BD7D7E",
"h. c #C57679",
"j. c #A2807E",
"k. c #908F8B",
"l. c #9F9498",
"z. c #BE898F",
"x. c #BF8D8C",
"c. c #BD908D",
"v. c #A68F97",
"b. c #A49195",
"n. c #AD9396",
"m. c #BD9699",
"M. c #BD959E",
"N. c #B89E9D",
"B. c #B8A1A7",
"V. c #B7A2A9",
"C. c #BDA6AC",
"Z. c #B2ADAA",
"A. c #BAA9AF",
"S. c #BDAEB1",
"D. c #BFB6B9",
"F. c #BFBBBA",
"G. c #C1898A",
"H. c #C39796",
"J. c #CC979D",
"K. c #DB9C97",
"L. c #D9A0A6",
"P. c #D9A6AD",
"I. c #D9B0AC",
"U. c #D6ADB1",
"Y. c #CEB2B1",
"T. c #CDB0B5",
"R. c #D7B7B8",
"E. c #D8BABA",
"W. c #D6BDC0",
"Q. c #EBBFC0",
"!. c #CFC7C5",
"~. c #D3C0C2",
"^. c #D5CBC1",
"/. c #D5C6CB",
"(. c #DDCBC9",
"). c #DAD6D3",
"_. c #D7D9D6",
"`. c #D1DED5",
"'. c #DFD9DB",
"]. c #E2C3C1",
"[. c #E3CECD",
"{. c #E3D0CC",
"}. c #E0D6CC",
"|. c #E9D6D0",
" X c #E8DFD6",
".X c #F0D1D6",
"XX c #E3E4DF",
"oX c #F3E4DF",
"OX c #FBE7DE",
"+X c #F8EADF",
"@X c #DEE8E0",
"#X c #DAF0E4",
"$X c #DFF7EA",
"%X c #EDE9E6",
"&X c #EDECE8",
"*X c #EEEDE9",
"=X c #ECEEE9",
"-X c #F0E0E1",
";X c #F2E9E0",
":X c #F3E8E6",
">X c #FFE9E1",
",X c #F2E3E8",
"<X c #FFE4EB",
"1X c #F6ECEB",
"2X c #F0ECED",
"3X c #FCE9EB",
"4X c #FAEBEE",
"5X c #E4F1E8",
"6X c #E6F0E8",
"7X c #F1F3EE",
"8X c #FAF3EB",
"9X c #FCF1EB",
"0X c #F8F4EB",
"qX c #F8F0EE",
"wX c #FFF1ED",
"eX c #FFF3EC",
"rX c #FFF2EE",
"tX c #F8F5EE",
"yX c #FFEEF0",
"uX c #EEFFF5",
"iX c #F6F0F0",
"pX c #FFF2F7",
"aX c #FFF7F7",
"sX c #F1FBF3",
"dX c #F4F9F3",
"fX c #F4FBF4",
"gX c #F3FFF6",
"hX c #FFFCF3",
"jX c #F9FBF6",
"kX c #FFF9F7",
"lX c #F8FFF5",
"zX c #FAFCF7",
"xX c #FFFDF4",
"cX c #FFFFF7",
"vX c #FFF6FE",
"bX c #F2FFFC",
"nX c #F4FFFF",
"mX c #FDF9FA",
"MX c #F8FDF9",
"NX c #F9FFFA",
"BX c #FDFFFA",
"VX c #FFFFFB",
"CX c #FFFBFC",
"ZX c #FFFBFD",
"AX c #FFFAFF",
"SX c #F9FEFF",
"DX c #F8FFFF",
"FX c #FFFDFC",
"GX c #FEFCFD",
"HX c #FFFCFD",
"JX c #FFFDFF",
"KX c #FEFFFF",
"LX c white",
/* pixels */
"* +.Y u v = r 0 A > I I M - C P ",
"N c J f #.B $.b Z 1 S F l t +.u ",
"j X.y.u.=.: n : r 4.a.s./ & m f ",
"%.f.+XOXh.f U ~ z K.wXOX6.e T &.",
"{ c.gXlXG.D g 6 W I.NXhX7.0 j ) ",
":.J.MXjXL.*.k u >.].bXBXd.^ x L ",
"O.P.LXLXQ.5.i w 8..XDXZXG.Q , D ",
" .R.DXnX|.9.V 6 f.<XLXvXH.! 2 ( ",
"} ^.zXZX4Xi.G p M.1XZXsXU.[ < F ",
"<.}.7XpXZXm.` D T.LXLXuXE.H o % ",
"-. X7X,XZXY.-.o.W.fX_.$X{._ % R ",
";.;X=X/.mX(.2.r.-XsXF.#XoX` # X ",
"3.0X-XA.*X:Xw.p.yX%XS.5XeX] @ . ",
"1.0X6XV.'.qXe.j.3X!.C.5XeX| + 3 ",
"0.qX&Xv.D.qXn.N.aXZ.B.@XwX,.  o ",
"z.cX).q.l.ZXW.[.kXk.b.`.hXt.$ 4 "
};
